<?xml version="1.0" standalone="no"?>
<!DOCTYPE svg PUBLIC "-//W3C//DTD SVG 20010904//EN"
 "http://www.w3.org/TR/2001/REC-SVG-20010904/DTD/svg10.dtd">
<svg version="1.0" xmlns="http://www.w3.org/2000/svg"
 width="16.000000pt" height="16.000000pt" viewBox="0 0 16.000000 16.000000"
 preserveAspectRatio="xMidYMid meet">
<metadata>
Created by potrace 1.11, written by Peter Selinger 2001-2013
</metadata>
<g transform="translate(0.000000,16.000000) scale(0.005714,-0.005714)"
fill="#000000" stroke="none">
<path d="M1992 2785 c-170 -37 -333 -155 -424 -307 -64 -108 -91 -204 -92
-328 0 -58 2 -119 6 -137 44 -226 219 -429 435 -504 78 -27 123 -34 218 -34
101 1 144 8 227 38 264 96 437 342 436 622 -1 299 -189 550 -478 640 -73 22
-246 27 -328 10z"/>
<path d="M448 2625 c-2 -2 -21 -5 -43 -8 -182 -26 -341 -172 -390 -358 -20
-76 -13 -208 15 -284 111 -293 452 -407 715 -240 261 167 299 529 77 751 -61
61 -169 118 -243 129 -56 8 -127 14 -131 10z"/>
<path d="M2079 966 c-2 -2 -21 -6 -43 -9 -57 -8 -175 -70 -225 -119 -76 -74
-130 -174 -146 -267 -42 -251 98 -474 345 -553 58 -19 185 -20 251 -3 274 73
431 368 335 632 -51 142 -176 260 -321 303 -38 11 -188 23 -196 16z"/>
</g>
</svg>
