<?xml version="1.0" encoding="utf-8"?>
<!-- Generator: Adobe Illustrator 17.0.0, SVG Export Plug-In . SVG Version: 6.00 Build 0)  -->
<!DOCTYPE svg PUBLIC "-//W3C//DTD SVG 1.1//EN" "http://www.w3.org/Graphics/SVG/1.1/DTD/svg11.dtd">
<svg version="1.1" id="Layer_1" xmlns="http://www.w3.org/2000/svg" xmlns:xlink="http://www.w3.org/1999/xlink" x="0px" y="0px"
	 width="64.54px" height="58.5px" viewBox="0 0 64.54 58.5" enable-background="new 0 0 64.54 58.5" xml:space="preserve">
<g display="none">
	<g display="inline">
		<path fill="#393F4B" d="M41.205,2.776c2.115,0,3.846,1.731,3.846,3.846v45.256c0,2.115-1.731,3.846-3.846,3.846H20.996
			c-2.115,0-3.846-1.731-3.846-3.846V6.622c0-2.115,1.731-3.846,3.846-3.846L41.205,2.776 M41.205,0.449H20.996
			c-3.404,0-6.173,2.769-6.173,6.173v45.256c0,3.404,2.769,6.173,6.173,6.173h20.209c3.404,0,6.173-2.769,6.173-6.173V6.622
			C47.378,3.218,44.609,0.449,41.205,0.449L41.205,0.449z"/>
	</g>
	<circle display="inline" fill="#393F4B" cx="32.364" cy="51.815" r="2.328"/>
	
		<line display="inline" fill="none" stroke="#393F4B" stroke-width="1.862" stroke-miterlimit="10" x1="17.598" y1="47.253" x2="47.39" y2="47.253"/>
	
		<line display="inline" fill="none" stroke="#393F4B" stroke-width="1.862" stroke-miterlimit="10" x1="17.598" y1="7.276" x2="47.39" y2="7.276"/>
</g>
<g display="none">
	<g display="inline">
		<path fill="#393F4B" d="M52.641,3.757L52.641,3.757c2.623,0,4.844,1.882,5.28,4.476c0.237,1.413-0.09,2.834-0.921,4.001
			s-2.067,1.94-3.48,2.178c-0.298,0.05-0.6,0.075-0.898,0.075c-2.624,0-4.844-1.882-5.28-4.476c-0.237-1.413,0.09-2.834,0.921-4.001
			s2.067-1.94,3.48-2.178C52.041,3.782,52.343,3.757,52.641,3.757 M52.641,1.257c-0.433,0-0.872,0.036-1.313,0.11
			c-4.283,0.72-7.171,4.775-6.452,9.058c0.646,3.842,3.975,6.562,7.745,6.562c0.433,0,0.872-0.036,1.313-0.11
			c4.283-0.72,7.171-4.775,6.452-9.058C59.741,3.976,56.411,1.257,52.641,1.257L52.641,1.257z"/>
	</g>
	<g display="inline">
		<path fill="#393F4B" d="M11.578,31.02L11.578,31.02c2.457,0,4.537,1.763,4.945,4.192c0.459,2.732-1.39,5.328-4.122,5.787
			c-0.279,0.047-0.562,0.071-0.842,0.071c-2.457,0-4.537-1.763-4.945-4.192c-0.459-2.732,1.39-5.328,4.122-5.787
			C11.015,31.044,11.298,31.02,11.578,31.02 M11.577,28.52c-0.414,0-0.834,0.034-1.256,0.105c-4.098,0.689-6.862,4.569-6.173,8.667
			c0.618,3.676,3.803,6.278,7.411,6.278c0.414,0,0.834-0.034,1.256-0.105c4.098-0.689,6.862-4.569,6.173-8.667
			C18.371,31.123,15.185,28.52,11.577,28.52L11.577,28.52z"/>
	</g>
	<g display="inline">
		<path fill="#393F4B" d="M21.079,10.731c1.654,0,3.055,1.188,3.33,2.824c0.309,1.84-0.936,3.588-2.776,3.898
			c-0.188,0.032-0.379,0.048-0.568,0.048c-1.654,0-3.055-1.188-3.33-2.824c-0.309-1.84,0.936-3.588,2.776-3.898
			C20.699,10.747,20.89,10.731,21.079,10.731 M21.078,8.231c-0.324,0-0.652,0.027-0.982,0.082c-3.205,0.538-5.366,3.573-4.827,6.777
			c0.483,2.875,2.974,4.91,5.795,4.91c0.324,0,0.652-0.027,0.982-0.082c3.205-0.538,5.366-3.573,4.827-6.777
			C26.391,10.266,23.899,8.231,21.078,8.231L21.078,8.231z"/>
	</g>
	<g display="inline">
		<path fill="#393F4B" d="M38.61,47.974L38.61,47.974c1.654,0,3.055,1.188,3.33,2.824c0.309,1.84-0.936,3.588-2.776,3.898
			c-0.188,0.032-0.379,0.048-0.568,0.048c-1.654,0-3.055-1.188-3.33-2.824c-0.309-1.84,0.936-3.588,2.776-3.898
			C38.231,47.99,38.422,47.974,38.61,47.974 M38.61,45.474c-0.324,0-0.652,0.027-0.982,0.082c-3.205,0.539-5.366,3.573-4.827,6.777
			c0.483,2.875,2.974,4.91,5.795,4.91c0.324,0,0.652-0.027,0.982-0.082c3.205-0.539,5.366-3.573,4.827-6.777
			C43.922,47.509,41.431,45.474,38.61,45.474L38.61,45.474z"/>
	</g>
	<g display="inline">
		<path fill="#393F4B" d="M35.04,23.79L35.04,23.79c3.776,0,6.972,2.709,7.599,6.441c0.705,4.197-2.136,8.185-6.333,8.891
			c-0.428,0.072-0.862,0.108-1.291,0.108c-3.776,0-6.972-2.709-7.599-6.441c-0.342-2.033,0.129-4.078,1.325-5.757
			c1.196-1.679,2.974-2.792,5.008-3.134C34.176,23.827,34.61,23.79,35.04,23.79 M35.04,21.29c-0.562,0-1.133,0.047-1.706,0.143
			c-5.565,0.935-9.319,6.205-8.384,11.77c0.839,4.992,5.165,8.527,10.065,8.527c0.562,0,1.133-0.047,1.706-0.143
			c5.565-0.935,9.319-6.205,8.384-11.77C44.265,24.825,39.939,21.29,35.04,21.29L35.04,21.29z"/>
	</g>
	
		<line display="inline" fill="none" stroke="#393F4B" stroke-width="1.7296" stroke-miterlimit="10" x1="41.528" y1="23.803" x2="48.294" y2="15.358"/>
	
		<line display="inline" fill="none" stroke="#393F4B" stroke-width="1.7296" stroke-miterlimit="10" x1="36.74" y1="41.231" x2="37.743" y2="47.201"/>
	
		<line display="inline" fill="none" stroke="#393F4B" stroke-width="1.7296" stroke-miterlimit="10" x1="26.677" y1="33.116" x2="13.6" y2="35.314"/>
	
		<line display="inline" fill="none" stroke="#393F4B" stroke-width="1.7296" stroke-miterlimit="10" x1="29.131" y1="25.104" x2="24.193" y2="18.334"/>
</g>
<g id="Layer_2">
	<g id="Layer_3">
	</g>
</g>
<g>
	<polyline fill="none" stroke="#000000" stroke-linecap="round" stroke-linejoin="round" stroke-miterlimit="10" points="
		-36.836,-37.917 -36.836,5.958 -55.412,5.958 -60.72,1.083 -95.219,1.083 -95.219,-42.792 -76.643,-42.792 -71.335,-37.917 
		-36.836,-37.917 	"/>
	
		<ellipse fill="none" stroke="#000000" stroke-linecap="round" stroke-linejoin="round" stroke-miterlimit="10" cx="-73.989" cy="-23.292" rx="5.308" ry="4.875"/>
	<path fill="none" stroke="#000000" stroke-linecap="round" stroke-linejoin="round" stroke-miterlimit="10" d="M-63.374-8.667
		c0-5.385-4.753-9.75-10.615-9.75c-5.863,0-10.615,4.365-10.615,9.75"/>
	
		<line fill="none" stroke="#000000" stroke-linecap="round" stroke-linejoin="round" stroke-miterlimit="10" x1="-52.759" y1="-23.292" x2="-47.451" y2="-23.292"/>
	
		<line fill="none" stroke="#000000" stroke-linecap="round" stroke-linejoin="round" stroke-miterlimit="10" x1="-52.759" y1="-13.542" x2="-47.451" y2="-13.542"/>
</g>
<polyline fill="none" points="64.54,0 0,0 0,58.5 "/>
<polyline fill="none" points="0,58.5 64.54,58.5 64.54,0 "/>
<g>
	<path fill="none" stroke="#000000" stroke-linecap="round" stroke-linejoin="round" stroke-miterlimit="10" d="M43.658,29.25
		v25.795H20.882V51.36 M20.882,29.25V3.455h22.776V7.14"/>
	<polyline fill="none" stroke="#000000" stroke-linecap="round" stroke-linejoin="round" stroke-miterlimit="10" points="
		52.199,3.455 60.74,18.195 52.199,32.935 	"/>
	
		<line fill="none" stroke="#000000" stroke-linecap="round" stroke-linejoin="round" stroke-miterlimit="10" x1="60.74" y1="18.195" x2="32.27" y2="18.195"/>
	<polyline fill="none" stroke="#000000" stroke-linecap="round" stroke-linejoin="round" stroke-miterlimit="10" points="
		12.341,25.565 3.8,40.305 12.341,55.045 	"/>
	
		<line fill="none" stroke="#000000" stroke-linecap="round" stroke-linejoin="round" stroke-miterlimit="10" x1="3.8" y1="40.305" x2="32.27" y2="40.305"/>
</g>
<g>
	<g>
		<defs>
			<rect id="SVGID_1_" x="-122.05" y="24.703" width="43.673" height="43.648"/>
		</defs>
		<clipPath id="SVGID_2_">
			<use xlink:href="#SVGID_1_"  overflow="visible"/>
		</clipPath>
		
			<circle clip-path="url(#SVGID_2_)" fill="none" stroke="#000000" stroke-width="2" stroke-linecap="round" stroke-linejoin="round" stroke-miterlimit="10" cx="-100.226" cy="39.253" r="7.275"/>
		
			<path clip-path="url(#SVGID_2_)" fill="none" stroke="#000000" stroke-width="2" stroke-linecap="round" stroke-linejoin="round" stroke-miterlimit="10" d="
			M-85.676,61.077c0-8.035-6.514-14.549-14.549-14.549c-8.035,0-14.549,6.514-14.549,14.549"/>
	</g>
	<g>
		<defs>
			<rect id="SVGID_3_" x="-100.602" y="24.704" width="34.575" height="34.555"/>
		</defs>
		<clipPath id="SVGID_4_">
			<use xlink:href="#SVGID_3_"  overflow="visible"/>
		</clipPath>
		
			<circle clip-path="url(#SVGID_4_)" fill="none" stroke="#000000" stroke-width="2" stroke-linecap="round" stroke-linejoin="round" stroke-miterlimit="10" cx="-83.202" cy="36.304" r="5.8"/>
		
			<path clip-path="url(#SVGID_4_)" fill="none" stroke="#000000" stroke-width="2" stroke-linecap="round" stroke-linejoin="round" stroke-miterlimit="10" d="
			M-71.602,53.704c0-6.407-5.194-11.6-11.6-11.6c-6.407,0-11.6,5.194-11.6,11.6"/>
	</g>
	<g>
		<defs>
			<rect id="SVGID_5_" x="-135.039" y="24.704" width="34.575" height="34.555"/>
		</defs>
		<clipPath id="SVGID_6_">
			<use xlink:href="#SVGID_5_"  overflow="visible"/>
		</clipPath>
		
			<circle clip-path="url(#SVGID_6_)" fill="none" stroke="#000000" stroke-width="2" stroke-linecap="round" stroke-linejoin="round" stroke-miterlimit="10" cx="-117.639" cy="36.304" r="5.8"/>
		
			<path clip-path="url(#SVGID_6_)" fill="none" stroke="#000000" stroke-width="2" stroke-linecap="round" stroke-linejoin="round" stroke-miterlimit="10" d="
			M-106.038,53.704c0-6.407-5.194-11.6-11.6-11.6c-6.407,0-11.6,5.194-11.6,11.6"/>
	</g>
</g>
</svg>
