<?xml version="1.0" encoding="utf-8"?>
<!-- Generator: Adobe Illustrator 17.0.0, SVG Export Plug-In . SVG Version: 6.00 Build 0)  -->
<!DOCTYPE svg PUBLIC "-//W3C//DTD SVG 1.1//EN" "http://www.w3.org/Graphics/SVG/1.1/DTD/svg11.dtd">
<svg version="1.1" id="Layer_1" xmlns="http://www.w3.org/2000/svg" xmlns:xlink="http://www.w3.org/1999/xlink" x="0px" y="0px"
	 width="64.54px" height="58.5px" viewBox="0 0 64.54 58.5" enable-background="new 0 0 64.54 58.5" xml:space="preserve">
<g display="none">
	<g display="inline">
		<path fill="#393F4B" d="M41.205,2.776c2.115,0,3.846,1.731,3.846,3.846v45.256c0,2.115-1.731,3.846-3.846,3.846H20.996
			c-2.115,0-3.846-1.731-3.846-3.846V6.622c0-2.115,1.731-3.846,3.846-3.846H41.205 M41.205,0.449H20.996
			c-3.404,0-6.173,2.769-6.173,6.173v45.256c0,3.404,2.769,6.173,6.173,6.173h20.209c3.404,0,6.173-2.769,6.173-6.173V6.622
			C47.378,3.218,44.609,0.449,41.205,0.449L41.205,0.449z"/>
	</g>
	<circle display="inline" fill="#393F4B" cx="32.364" cy="51.815" r="2.328"/>
	
		<line display="inline" fill="none" stroke="#393F4B" stroke-width="1.862" stroke-miterlimit="10" x1="17.598" y1="47.253" x2="47.39" y2="47.253"/>
	
		<line display="inline" fill="none" stroke="#393F4B" stroke-width="1.862" stroke-miterlimit="10" x1="17.598" y1="7.276" x2="47.39" y2="7.276"/>
</g>
<g display="none">
	<g display="inline">
		<path fill="#393F4B" d="M52.641,3.757L52.641,3.757c2.623,0,4.844,1.882,5.28,4.476c0.237,1.413-0.09,2.834-0.921,4.001
			c-0.831,1.167-2.067,1.94-3.48,2.178c-0.298,0.05-0.6,0.075-0.898,0.075c-2.624,0-4.844-1.882-5.28-4.476
			c-0.237-1.413,0.09-2.834,0.921-4.001c0.831-1.167,2.067-1.94,3.48-2.178C52.041,3.782,52.343,3.757,52.641,3.757 M52.641,1.257
			c-0.433,0-0.872,0.036-1.313,0.11c-4.283,0.72-7.171,4.775-6.452,9.058c0.646,3.842,3.975,6.562,7.745,6.562
			c0.433,0,0.872-0.036,1.313-0.11c4.283-0.72,7.171-4.775,6.452-9.058C59.741,3.976,56.411,1.257,52.641,1.257L52.641,1.257z"/>
	</g>
	<g display="inline">
		<path fill="#393F4B" d="M11.578,31.02L11.578,31.02c2.457,0,4.537,1.763,4.945,4.192c0.459,2.732-1.39,5.328-4.122,5.787
			c-0.279,0.047-0.562,0.071-0.842,0.071c-2.457,0-4.537-1.763-4.945-4.192c-0.459-2.732,1.39-5.328,4.122-5.787
			C11.015,31.044,11.298,31.02,11.578,31.02 M11.577,28.52c-0.414,0-0.834,0.034-1.256,0.105c-4.098,0.689-6.862,4.569-6.173,8.667
			c0.618,3.676,3.803,6.278,7.411,6.278c0.414,0,0.834-0.034,1.256-0.105c4.098-0.689,6.862-4.569,6.173-8.667
			C18.371,31.123,15.185,28.52,11.577,28.52L11.577,28.52z"/>
	</g>
	<g display="inline">
		<path fill="#393F4B" d="M21.079,10.731c1.654,0,3.055,1.188,3.33,2.824c0.309,1.84-0.936,3.588-2.776,3.898
			c-0.188,0.032-0.379,0.048-0.568,0.048c-1.654,0-3.055-1.188-3.33-2.824c-0.309-1.84,0.936-3.588,2.776-3.898
			C20.699,10.747,20.89,10.731,21.079,10.731 M21.078,8.231c-0.324,0-0.652,0.027-0.982,0.082c-3.205,0.538-5.366,3.573-4.827,6.777
			c0.483,2.875,2.974,4.91,5.795,4.91c0.324,0,0.652-0.027,0.982-0.082c3.205-0.538,5.366-3.573,4.827-6.777
			C26.391,10.266,23.899,8.231,21.078,8.231L21.078,8.231z"/>
	</g>
	<g display="inline">
		<path fill="#393F4B" d="M38.61,47.974L38.61,47.974c1.654,0,3.055,1.188,3.33,2.824c0.309,1.84-0.936,3.588-2.776,3.898
			c-0.188,0.032-0.379,0.048-0.568,0.048c-1.654,0-3.055-1.188-3.33-2.824c-0.309-1.84,0.936-3.588,2.776-3.898
			C38.231,47.99,38.422,47.974,38.61,47.974 M38.61,45.474c-0.324,0-0.652,0.027-0.982,0.082c-3.205,0.539-5.366,3.573-4.827,6.777
			c0.483,2.875,2.974,4.91,5.795,4.91c0.324,0,0.652-0.027,0.982-0.082c3.205-0.539,5.366-3.573,4.827-6.777
			C43.922,47.509,41.431,45.474,38.61,45.474L38.61,45.474z"/>
	</g>
	<g display="inline">
		<path fill="#393F4B" d="M35.04,23.79L35.04,23.79c3.776,0,6.972,2.709,7.599,6.441c0.705,4.197-2.136,8.185-6.333,8.891
			c-0.428,0.072-0.862,0.108-1.291,0.108c-3.776,0-6.972-2.709-7.599-6.441c-0.342-2.033,0.129-4.078,1.325-5.757
			c1.196-1.679,2.974-2.792,5.008-3.134C34.176,23.827,34.61,23.79,35.04,23.79 M35.04,21.29c-0.562,0-1.133,0.047-1.706,0.143
			c-5.565,0.935-9.319,6.205-8.384,11.77c0.839,4.992,5.165,8.527,10.065,8.527c0.562,0,1.133-0.047,1.706-0.143
			c5.565-0.935,9.319-6.205,8.384-11.77C44.265,24.825,39.939,21.29,35.04,21.29L35.04,21.29z"/>
	</g>
	
		<line display="inline" fill="none" stroke="#393F4B" stroke-width="1.7296" stroke-miterlimit="10" x1="41.528" y1="23.803" x2="48.294" y2="15.358"/>
	
		<line display="inline" fill="none" stroke="#393F4B" stroke-width="1.7296" stroke-miterlimit="10" x1="36.74" y1="41.231" x2="37.743" y2="47.201"/>
	
		<line display="inline" fill="none" stroke="#393F4B" stroke-width="1.7296" stroke-miterlimit="10" x1="26.677" y1="33.116" x2="13.6" y2="35.314"/>
	
		<line display="inline" fill="none" stroke="#393F4B" stroke-width="1.7296" stroke-miterlimit="10" x1="29.131" y1="25.104" x2="24.193" y2="18.334"/>
</g>
<g>
	<g>
		<path fill="#3A404C" d="M32.27,11.66c16.103,0,29.157,17.59,29.157,17.59S48.373,46.84,32.27,46.84S3.113,29.25,3.113,29.25
			S16.167,11.66,32.27,11.66 M32.27,9.16C15.107,9.16,1.669,27,1.106,27.76L0,29.25l1.106,1.49c0.564,0.759,14.001,18.6,31.164,18.6
			s30.601-17.84,31.164-18.6l1.106-1.49l-1.106-1.49C62.87,27.001,49.433,9.16,32.27,9.16L32.27,9.16z"/>
	</g>
	<g>
		<path fill="#3A404C" d="M32.04,12.93c9.035,0,16.385,7.35,16.385,16.385S41.075,45.7,32.04,45.7s-16.385-7.35-16.385-16.385
			S23.005,12.93,32.04,12.93 M32.04,10.93c-10.154,0-18.385,8.231-18.385,18.385S21.886,47.7,32.04,47.7s18.385-8.231,18.385-18.385
			S42.194,10.93,32.04,10.93L32.04,10.93z"/>
	</g>
	<path fill="#3A404C" d="M37.868,29.267c-3.122,0-5.693-2.571-5.693-5.693c0-1.836,0.918-3.489,2.204-4.499
		c-0.643-0.092-1.377-0.184-2.02-0.184c-5.693,0-10.376,4.683-10.376,10.376s4.683,10.376,10.376,10.376s10.376-4.683,10.376-10.376
		c0-0.826-0.092-1.561-0.275-2.296C41.449,28.349,39.704,29.267,37.868,29.267z"/>
</g>
<g id="Layer_2">
	<g id="Layer_3">
	</g>
</g>
</svg>
