<svg xmlns="http://www.w3.org/2000/svg" width="65" height="354" viewBox="0 0 65 354"><svg xmlns:xlink="http://www.w3.org/1999/xlink" version="1.1" id="arrows" x="0px" y="0" width="65" height="59" viewBox="0 0 64.54 58.5" enable-background="new 0 0 64.54 58.5" xml:space="preserve"><g display="none">	<g display="inline">		<path fill="#393F4B" d="M41.205,2.776c2.115,0,3.846,1.731,3.846,3.846v45.256c0,2.115-1.731,3.846-3.846,3.846H20.996    c-2.115,0-3.846-1.731-3.846-3.846V6.622c0-2.115,1.731-3.846,3.846-3.846L41.205,2.776 M41.205,0.449H20.996    c-3.404,0-6.173,2.769-6.173,6.173v45.256c0,3.404,2.769,6.173,6.173,6.173h20.209c3.404,0,6.173-2.769,6.173-6.173V6.622    C47.378,3.218,44.609,0.449,41.205,0.449L41.205,0.449z"/>	</g>	<circle display="inline" fill="#393F4B" cx="32.364" cy="51.815" r="2.328"/>			<line display="inline" fill="none" stroke="#393F4B" stroke-width="1.862" stroke-miterlimit="10" x1="17.598" y1="47.253" x2="47.39" y2="47.253"/>			<line display="inline" fill="none" stroke="#393F4B" stroke-width="1.862" stroke-miterlimit="10" x1="17.598" y1="7.276" x2="47.39" y2="7.276"/></g><g display="none">	<g display="inline">		<path fill="#393F4B" d="M52.641,3.757L52.641,3.757c2.623,0,4.844,1.882,5.28,4.476c0.237,1.413-0.09,2.834-0.921,4.001    s-2.067,1.94-3.48,2.178c-0.298,0.05-0.6,0.075-0.898,0.075c-2.624,0-4.844-1.882-5.28-4.476c-0.237-1.413,0.09-2.834,0.921-4.001    s2.067-1.94,3.48-2.178C52.041,3.782,52.343,3.757,52.641,3.757 M52.641,1.257c-0.433,0-0.872,0.036-1.313,0.11    c-4.283,0.72-7.171,4.775-6.452,9.058c0.646,3.842,3.975,6.562,7.745,6.562c0.433,0,0.872-0.036,1.313-0.11    c4.283-0.72,7.171-4.775,6.452-9.058C59.741,3.976,56.411,1.257,52.641,1.257L52.641,1.257z"/>	</g>	<g display="inline">		<path fill="#393F4B" d="M11.578,31.02L11.578,31.02c2.457,0,4.537,1.763,4.945,4.192c0.459,2.732-1.39,5.328-4.122,5.787    c-0.279,0.047-0.562,0.071-0.842,0.071c-2.457,0-4.537-1.763-4.945-4.192c-0.459-2.732,1.39-5.328,4.122-5.787    C11.015,31.044,11.298,31.02,11.578,31.02 M11.577,28.52c-0.414,0-0.834,0.034-1.256,0.105c-4.098,0.689-6.862,4.569-6.173,8.667    c0.618,3.676,3.803,6.278,7.411,6.278c0.414,0,0.834-0.034,1.256-0.105c4.098-0.689,6.862-4.569,6.173-8.667    C18.371,31.123,15.185,28.52,11.577,28.52L11.577,28.52z"/>	</g>	<g display="inline">		<path fill="#393F4B" d="M21.079,10.731c1.654,0,3.055,1.188,3.33,2.824c0.309,1.84-0.936,3.588-2.776,3.898    c-0.188,0.032-0.379,0.048-0.568,0.048c-1.654,0-3.055-1.188-3.33-2.824c-0.309-1.84,0.936-3.588,2.776-3.898    C20.699,10.747,20.89,10.731,21.079,10.731 M21.078,8.231c-0.324,0-0.652,0.027-0.982,0.082c-3.205,0.538-5.366,3.573-4.827,6.777    c0.483,2.875,2.974,4.91,5.795,4.91c0.324,0,0.652-0.027,0.982-0.082c3.205-0.538,5.366-3.573,4.827-6.777    C26.391,10.266,23.899,8.231,21.078,8.231L21.078,8.231z"/>	</g>	<g display="inline">		<path fill="#393F4B" d="M38.61,47.974L38.61,47.974c1.654,0,3.055,1.188,3.33,2.824c0.309,1.84-0.936,3.588-2.776,3.898    c-0.188,0.032-0.379,0.048-0.568,0.048c-1.654,0-3.055-1.188-3.33-2.824c-0.309-1.84,0.936-3.588,2.776-3.898    C38.231,47.99,38.422,47.974,38.61,47.974 M38.61,45.474c-0.324,0-0.652,0.027-0.982,0.082c-3.205,0.539-5.366,3.573-4.827,6.777    c0.483,2.875,2.974,4.91,5.795,4.91c0.324,0,0.652-0.027,0.982-0.082c3.205-0.539,5.366-3.573,4.827-6.777    C43.922,47.509,41.431,45.474,38.61,45.474L38.61,45.474z"/>	</g>	<g display="inline">		<path fill="#393F4B" d="M35.04,23.79L35.04,23.79c3.776,0,6.972,2.709,7.599,6.441c0.705,4.197-2.136,8.185-6.333,8.891    c-0.428,0.072-0.862,0.108-1.291,0.108c-3.776,0-6.972-2.709-7.599-6.441c-0.342-2.033,0.129-4.078,1.325-5.757    c1.196-1.679,2.974-2.792,5.008-3.134C34.176,23.827,34.61,23.79,35.04,23.79 M35.04,21.29c-0.562,0-1.133,0.047-1.706,0.143    c-5.565,0.935-9.319,6.205-8.384,11.77c0.839,4.992,5.165,8.527,10.065,8.527c0.562,0,1.133-0.047,1.706-0.143    c5.565-0.935,9.319-6.205,8.384-11.77C44.265,24.825,39.939,21.29,35.04,21.29L35.04,21.29z"/>	</g>			<line display="inline" fill="none" stroke="#393F4B" stroke-width="1.7296" stroke-miterlimit="10" x1="41.528" y1="23.803" x2="48.294" y2="15.358"/>			<line display="inline" fill="none" stroke="#393F4B" stroke-width="1.7296" stroke-miterlimit="10" x1="36.74" y1="41.231" x2="37.743" y2="47.201"/>			<line display="inline" fill="none" stroke="#393F4B" stroke-width="1.7296" stroke-miterlimit="10" x1="26.677" y1="33.116" x2="13.6" y2="35.314"/>			<line display="inline" fill="none" stroke="#393F4B" stroke-width="1.7296" stroke-miterlimit="10" x1="29.131" y1="25.104" x2="24.193" y2="18.334"/></g><g id="arrows-Layer_2">	<g id="arrows-Layer_3">	</g></g><g>	<polyline fill="none" stroke="#000000" stroke-linecap="round" stroke-linejoin="round" stroke-miterlimit="10" points="   -36.836,-37.917 -36.836,5.958 -55.412,5.958 -60.72,1.083 -95.219,1.083 -95.219,-42.792 -76.643,-42.792 -71.335,-37.917    -36.836,-37.917  "/>			<ellipse fill="none" stroke="#000000" stroke-linecap="round" stroke-linejoin="round" stroke-miterlimit="10" cx="-73.989" cy="-23.292" rx="5.308" ry="4.875"/>	<path fill="none" stroke="#000000" stroke-linecap="round" stroke-linejoin="round" stroke-miterlimit="10" d="M-63.374-8.667   c0-5.385-4.753-9.75-10.615-9.75c-5.863,0-10.615,4.365-10.615,9.75"/>			<line fill="none" stroke="#000000" stroke-linecap="round" stroke-linejoin="round" stroke-miterlimit="10" x1="-52.759" y1="-23.292" x2="-47.451" y2="-23.292"/>			<line fill="none" stroke="#000000" stroke-linecap="round" stroke-linejoin="round" stroke-miterlimit="10" x1="-52.759" y1="-13.542" x2="-47.451" y2="-13.542"/></g><polyline fill="none" points="64.54,0 0,0 0,58.5 "/><polyline fill="none" points="0,58.5 64.54,58.5 64.54,0 "/><g>	<path fill="none" stroke="#000000" stroke-linecap="round" stroke-linejoin="round" stroke-miterlimit="10" d="M43.658,29.25   v25.795H20.882V51.36 M20.882,29.25V3.455h22.776V7.14"/>	<polyline fill="none" stroke="#000000" stroke-linecap="round" stroke-linejoin="round" stroke-miterlimit="10" points="   52.199,3.455 60.74,18.195 52.199,32.935  "/>			<line fill="none" stroke="#000000" stroke-linecap="round" stroke-linejoin="round" stroke-miterlimit="10" x1="60.74" y1="18.195" x2="32.27" y2="18.195"/>	<polyline fill="none" stroke="#000000" stroke-linecap="round" stroke-linejoin="round" stroke-miterlimit="10" points="   12.341,25.565 3.8,40.305 12.341,55.045  "/>			<line fill="none" stroke="#000000" stroke-linecap="round" stroke-linejoin="round" stroke-miterlimit="10" x1="3.8" y1="40.305" x2="32.27" y2="40.305"/></g><g>	<g>		<defs>			<rect id="arrows-SVGID_1_" x="-122.05" y="24.703" width="43.673" height="43.648"/>		</defs>		<clipPath id="arrows-SVGID_2_">			<use xlink:href="#arrows-SVGID_1_" overflow="visible"/>		</clipPath>					<circle clip-path="url(#arrows-SVGID_2_)" fill="none" stroke="#000000" stroke-width="2" stroke-linecap="round" stroke-linejoin="round" stroke-miterlimit="10" cx="-100.226" cy="39.253" r="7.275"/>					<path clip-path="url(#arrows-SVGID_2_)" fill="none" stroke="#000000" stroke-width="2" stroke-linecap="round" stroke-linejoin="round" stroke-miterlimit="10" d="    M-85.676,61.077c0-8.035-6.514-14.549-14.549-14.549c-8.035,0-14.549,6.514-14.549,14.549"/>	</g>	<g>		<defs>			<rect id="arrows-SVGID_3_" x="-100.602" y="24.704" width="34.575" height="34.555"/>		</defs>		<clipPath id="arrows-SVGID_4_">			<use xlink:href="#arrows-SVGID_3_" overflow="visible"/>		</clipPath>					<circle clip-path="url(#arrows-SVGID_4_)" fill="none" stroke="#000000" stroke-width="2" stroke-linecap="round" stroke-linejoin="round" stroke-miterlimit="10" cx="-83.202" cy="36.304" r="5.8"/>					<path clip-path="url(#arrows-SVGID_4_)" fill="none" stroke="#000000" stroke-width="2" stroke-linecap="round" stroke-linejoin="round" stroke-miterlimit="10" d="    M-71.602,53.704c0-6.407-5.194-11.6-11.6-11.6c-6.407,0-11.6,5.194-11.6,11.6"/>	</g>	<g>		<defs>			<rect id="arrows-SVGID_5_" x="-135.039" y="24.704" width="34.575" height="34.555"/>		</defs>		<clipPath id="arrows-SVGID_6_">			<use xlink:href="#arrows-SVGID_5_" overflow="visible"/>		</clipPath>					<circle clip-path="url(#arrows-SVGID_6_)" fill="none" stroke="#000000" stroke-width="2" stroke-linecap="round" stroke-linejoin="round" stroke-miterlimit="10" cx="-117.639" cy="36.304" r="5.8"/>					<path clip-path="url(#arrows-SVGID_6_)" fill="none" stroke="#000000" stroke-width="2" stroke-linecap="round" stroke-linejoin="round" stroke-miterlimit="10" d="    M-106.038,53.704c0-6.407-5.194-11.6-11.6-11.6c-6.407,0-11.6,5.194-11.6,11.6"/>	</g></g></svg><svg xmlns:xlink="http://www.w3.org/1999/xlink" id="eye" xml:space="preserve" height="59" viewBox="0 0 64.54 58.5" width="65" version="1.1" y="59" x="0px" enable-background="new 0 0 64.54 58.5"><g display="none">	<g display="inline">		<path d="m41.205 2.776c2.115 0 3.846 1.731 3.846 3.846v45.256c0 2.115-1.731 3.846-3.846 3.846h-20.209c-2.115 0-3.846-1.731-3.846-3.846v-45.256c0-2.115 1.731-3.846 3.846-3.846h20.209m0-2.327h-20.209c-3.404 0-6.173 2.769-6.173 6.173v45.256c0 3.404 2.769 6.173 6.173 6.173h20.209c3.404 0 6.173-2.769 6.173-6.173v-45.256c0-3.404-2.769-6.173-6.173-6.173z" fill="#393F4B"/>	</g>	<circle cy="51.815" cx="32.364" r="2.328" display="inline" fill="#393F4B"/>		<line y2="47.253" stroke-width="1.862" x2="47.39" stroke="#393F4B" stroke-miterlimit="10" y1="47.253" x1="17.598" display="inline" fill="none"/>		<line y2="7.276" stroke-width="1.862" x2="47.39" stroke="#393F4B" stroke-miterlimit="10" y1="7.276" x1="17.598" display="inline" fill="none"/></g><g display="none">	<g display="inline">		<path d="m52.641 3.757c2.623 0 4.844 1.882 5.28 4.476 0.237 1.413-0.09 2.834-0.921 4.001s-2.067 1.94-3.48 2.178c-0.298 0.05-0.6 0.075-0.898 0.075-2.624 0-4.844-1.882-5.28-4.476-0.237-1.413 0.09-2.834 0.921-4.001s2.067-1.94 3.48-2.178c0.298-0.05 0.6-0.075 0.898-0.075m0-2.5c-0.433 0-0.872 0.036-1.313 0.11-4.283 0.72-7.171 4.775-6.452 9.058 0.646 3.842 3.975 6.562 7.745 6.562 0.433 0 0.872-0.036 1.313-0.11 4.283-0.72 7.171-4.775 6.452-9.058-0.645-3.843-3.975-6.562-7.745-6.562z" fill="#393F4B"/>	</g>	<g display="inline">		<path d="m11.578 31.02c2.457 0 4.537 1.763 4.945 4.192 0.459 2.732-1.39 5.328-4.122 5.787-0.279 0.047-0.562 0.071-0.842 0.071-2.457 0-4.537-1.763-4.945-4.192-0.459-2.732 1.39-5.328 4.122-5.787 0.279-0.047 0.562-0.071 0.842-0.071m-0.001-2.5c-0.414 0-0.834 0.034-1.256 0.105-4.098 0.689-6.862 4.569-6.173 8.667 0.618 3.676 3.803 6.278 7.411 6.278 0.414 0 0.834-0.034 1.256-0.105 4.098-0.689 6.862-4.569 6.173-8.667-0.617-3.675-3.803-6.278-7.411-6.278z" fill="#393F4B"/>	</g>	<g display="inline">		<path d="m21.079 10.731c1.654 0 3.055 1.188 3.33 2.824 0.309 1.84-0.936 3.588-2.776 3.898-0.188 0.032-0.379 0.048-0.568 0.048-1.654 0-3.055-1.188-3.33-2.824-0.309-1.84 0.936-3.588 2.776-3.898 0.188-0.032 0.379-0.048 0.568-0.048m-0.001-2.5c-0.324 0-0.652 0.027-0.982 0.082-3.205 0.538-5.366 3.573-4.827 6.777 0.483 2.875 2.974 4.91 5.795 4.91 0.324 0 0.652-0.027 0.982-0.082 3.205-0.538 5.366-3.573 4.827-6.777-0.482-2.875-2.974-4.91-5.795-4.91z" fill="#393F4B"/>	</g>	<g display="inline">		<path d="m38.61 47.974c1.654 0 3.055 1.188 3.33 2.824 0.309 1.84-0.936 3.588-2.776 3.898-0.188 0.032-0.379 0.048-0.568 0.048-1.654 0-3.055-1.188-3.33-2.824-0.309-1.84 0.936-3.588 2.776-3.898 0.189-0.032 0.38-0.048 0.568-0.048m0-2.5c-0.324 0-0.652 0.027-0.982 0.082-3.205 0.539-5.366 3.573-4.827 6.777 0.483 2.875 2.974 4.91 5.795 4.91 0.324 0 0.652-0.027 0.982-0.082 3.205-0.539 5.366-3.573 4.827-6.777-0.483-2.875-2.974-4.91-5.795-4.91z" fill="#393F4B"/>	</g>	<g display="inline">		<path d="m35.04 23.79c3.776 0 6.972 2.709 7.599 6.441 0.705 4.197-2.136 8.185-6.333 8.891-0.428 0.072-0.862 0.108-1.291 0.108-3.776 0-6.972-2.709-7.599-6.441-0.342-2.033 0.129-4.078 1.325-5.757s2.974-2.792 5.008-3.134c0.427-0.071 0.861-0.108 1.291-0.108m0-2.5c-0.562 0-1.133 0.047-1.706 0.143-5.565 0.935-9.319 6.205-8.384 11.77 0.839 4.992 5.165 8.527 10.065 8.527 0.562 0 1.133-0.047 1.706-0.143 5.565-0.935 9.319-6.205 8.384-11.77-0.84-4.992-5.166-8.527-10.065-8.527z" fill="#393F4B"/>	</g><g stroke="#393F4B" stroke-width="1.7296" stroke-miterlimit="10" fill="none">		<line y2="15.358" x2="48.294" y1="23.803" x1="41.528" display="inline"/>		<line y2="47.201" x2="37.743" y1="41.231" x1="36.74" display="inline"/>		<line y2="35.314" x2="13.6" y1="33.116" x1="26.677" display="inline"/>		<line y2="18.334" x2="24.193" y1="25.104" x1="29.131" display="inline"/></g></g>		<path d="m32.27 11.66c16.103 0 29.157 17.59 29.157 17.59s-13.054 17.59-29.157 17.59-29.157-17.59-29.157-17.59 13.054-17.59 29.157-17.59m0-2.5c-17.163 0-30.601 17.84-31.164 18.6l-1.106 1.49 1.106 1.49c0.564 0.759 14.001 18.6 31.164 18.6s30.601-17.84 31.164-18.6l1.106-1.49-1.106-1.49c-0.564-0.759-14.001-18.6-31.164-18.6z" fill="#3A404C"/>		<path d="m32.04 12.93c9.035 0 16.385 7.35 16.385 16.385s-7.35 16.385-16.385 16.385-16.385-7.35-16.385-16.385 7.35-16.385 16.385-16.385m0-2c-10.154 0-18.385 8.231-18.385 18.385s8.231 18.385 18.385 18.385 18.385-8.231 18.385-18.385-8.231-18.385-18.385-18.385z" fill="#3A404C"/>	<path d="m37.868 29.267c-3.122 0-5.693-2.571-5.693-5.693 0-1.836 0.918-3.489 2.204-4.499-0.643-0.092-1.377-0.184-2.02-0.184-5.693 0-10.376 4.683-10.376 10.376s4.683 10.376 10.376 10.376 10.376-4.683 10.376-10.376c0-0.826-0.092-1.561-0.275-2.296-1.011 1.378-2.756 2.296-4.592 2.296z" fill="#3A404C"/><g id="eye-Layer_2"/></svg><svg xmlns:xlink="http://www.w3.org/1999/xlink" id="folder" xml:space="preserve" height="59" viewBox="0 0 64.54 58.5" width="65" version="1.1" y="118" x="0px" enable-background="new 0 0 64.54 58.5"><g display="none">	<g display="inline">		<path d="m41.205 2.776c2.115 0 3.846 1.731 3.846 3.846v45.256c0 2.115-1.731 3.846-3.846 3.846h-20.209c-2.115 0-3.846-1.731-3.846-3.846v-45.256c0-2.115 1.731-3.846 3.846-3.846h20.209m0-2.327h-20.209c-3.404 0-6.173 2.769-6.173 6.173v45.256c0 3.404 2.769 6.173 6.173 6.173h20.209c3.404 0 6.173-2.769 6.173-6.173v-45.256c0-3.404-2.769-6.173-6.173-6.173z" fill="#393F4B"/>	</g>	<circle cy="51.815" cx="32.364" r="2.328" display="inline" fill="#393F4B"/>		<line y2="47.253" stroke-width="1.862" x2="47.39" stroke="#393F4B" stroke-miterlimit="10" y1="47.253" x1="17.598" display="inline" fill="none"/>		<line y2="7.276" stroke-width="1.862" x2="47.39" stroke="#393F4B" stroke-miterlimit="10" y1="7.276" x1="17.598" display="inline" fill="none"/></g><g display="none">	<g display="inline">		<path d="m52.641 3.757c2.623 0 4.844 1.882 5.28 4.476 0.237 1.413-0.09 2.834-0.921 4.001s-2.067 1.94-3.48 2.178c-0.298 0.05-0.6 0.075-0.898 0.075-2.624 0-4.844-1.882-5.28-4.476-0.237-1.413 0.09-2.834 0.921-4.001s2.067-1.94 3.48-2.178c0.298-0.05 0.6-0.075 0.898-0.075m0-2.5c-0.433 0-0.872 0.036-1.313 0.11-4.283 0.72-7.171 4.775-6.452 9.058 0.646 3.842 3.975 6.562 7.745 6.562 0.433 0 0.872-0.036 1.313-0.11 4.283-0.72 7.171-4.775 6.452-9.058-0.645-3.843-3.975-6.562-7.745-6.562z" fill="#393F4B"/>	</g>	<g display="inline">		<path d="m11.578 31.02c2.457 0 4.537 1.763 4.945 4.192 0.459 2.732-1.39 5.328-4.122 5.787-0.279 0.047-0.562 0.071-0.842 0.071-2.457 0-4.537-1.763-4.945-4.192-0.459-2.732 1.39-5.328 4.122-5.787 0.279-0.047 0.562-0.071 0.842-0.071m-0.001-2.5c-0.414 0-0.834 0.034-1.256 0.105-4.098 0.689-6.862 4.569-6.173 8.667 0.618 3.676 3.803 6.278 7.411 6.278 0.414 0 0.834-0.034 1.256-0.105 4.098-0.689 6.862-4.569 6.173-8.667-0.617-3.675-3.803-6.278-7.411-6.278z" fill="#393F4B"/>	</g>	<g display="inline">		<path d="m21.079 10.731c1.654 0 3.055 1.188 3.33 2.824 0.309 1.84-0.936 3.588-2.776 3.898-0.188 0.032-0.379 0.048-0.568 0.048-1.654 0-3.055-1.188-3.33-2.824-0.309-1.84 0.936-3.588 2.776-3.898 0.188-0.032 0.379-0.048 0.568-0.048m-0.001-2.5c-0.324 0-0.652 0.027-0.982 0.082-3.205 0.538-5.366 3.573-4.827 6.777 0.483 2.875 2.974 4.91 5.795 4.91 0.324 0 0.652-0.027 0.982-0.082 3.205-0.538 5.366-3.573 4.827-6.777-0.482-2.875-2.974-4.91-5.795-4.91z" fill="#393F4B"/>	</g>	<g display="inline">		<path d="m38.61 47.974c1.654 0 3.055 1.188 3.33 2.824 0.309 1.84-0.936 3.588-2.776 3.898-0.188 0.032-0.379 0.048-0.568 0.048-1.654 0-3.055-1.188-3.33-2.824-0.309-1.84 0.936-3.588 2.776-3.898 0.189-0.032 0.38-0.048 0.568-0.048m0-2.5c-0.324 0-0.652 0.027-0.982 0.082-3.205 0.539-5.366 3.573-4.827 6.777 0.483 2.875 2.974 4.91 5.795 4.91 0.324 0 0.652-0.027 0.982-0.082 3.205-0.539 5.366-3.573 4.827-6.777-0.483-2.875-2.974-4.91-5.795-4.91z" fill="#393F4B"/>	</g>	<g display="inline">		<path d="m35.04 23.79c3.776 0 6.972 2.709 7.599 6.441 0.705 4.197-2.136 8.185-6.333 8.891-0.428 0.072-0.862 0.108-1.291 0.108-3.776 0-6.972-2.709-7.599-6.441-0.342-2.033 0.129-4.078 1.325-5.757s2.974-2.792 5.008-3.134c0.427-0.071 0.861-0.108 1.291-0.108m0-2.5c-0.562 0-1.133 0.047-1.706 0.143-5.565 0.935-9.319 6.205-8.384 11.77 0.839 4.992 5.165 8.527 10.065 8.527 0.562 0 1.133-0.047 1.706-0.143 5.565-0.935 9.319-6.205 8.384-11.77-0.84-4.992-5.166-8.527-10.065-8.527z" fill="#393F4B"/>	</g><g stroke="#393F4B" stroke-width="1.7296" stroke-miterlimit="10" fill="none">		<line y2="15.358" x2="48.294" y1="23.803" x1="41.528" display="inline"/>		<line y2="47.201" x2="37.743" y1="41.231" x1="36.74" display="inline"/>		<line y2="35.314" x2="13.6" y1="33.116" x1="26.677" display="inline"/>		<line y2="18.334" x2="24.193" y1="25.104" x1="29.131" display="inline"/></g></g><g id="folder-Layer_2"/><g stroke-linejoin="round" stroke="#000" stroke-linecap="round" stroke-miterlimit="10" fill="none">	<polyline points="61.462 9.75 61.462 53.625 42.885 53.625 37.578 48.75 3.078 48.75 3.078 4.875 21.655 4.875 26.962 9.75 61.462 9.75"/>		<ellipse cx="24.309" rx="5.308" cy="24.375" ry="4.875"/>	<path d="m34.924 39c0-5.385-4.753-9.75-10.615-9.75-5.863 0-10.615 4.365-10.615 9.75"/>		<line y2="24.375" x2="50.846" y1="24.375" x1="45.539"/>		<line y2="34.125" x2="50.846" y1="34.125" x1="45.539"/></g><polyline points="64.54 0 0 0 0 58.5" fill="none"/><polyline points="0 58.5 64.54 58.5 64.54 0" fill="none"/><g stroke-linejoin="round" stroke="#000" stroke-linecap="round" stroke-miterlimit="10" stroke-width="2" fill="none">	<path d="m147.32 14.51v25.795h-22.776v-3.685m0.01-22.11v-25.795h22.776v3.685"/>		<polyline points="155.87 -11.285 164.41 3.455 155.87 18.195"/>		<line x1="164.41" y2="3.455" x2="135.94" y1="3.455"/>		<polyline points="116.01 10.825 107.47 25.565 116.01 40.305"/>		<line x1="107.47" y2="25.565" x2="135.94" y1="25.565"/></g>		<defs>			<rect id="folder-SVGID_1_" y="24.703" x="-122.05" height="43.648" width="43.673"/>		</defs>		<clipPath id="folder-SVGID_2_">			<use overflow="visible" xlink:href="#folder-SVGID_1_"/>		</clipPath>			<circle stroke-linejoin="round" r="7.275" clip-path="url(#folder-SVGID_2_)" cx="-100.23" cy="39.253" stroke="#000" stroke-linecap="round" stroke-miterlimit="10" stroke-width="2" fill="none"/>			<path stroke-linejoin="round" d="m-85.676 61.077c0-8.035-6.514-14.549-14.549-14.549s-14.549 6.514-14.549 14.549" clip-path="url(#folder-SVGID_2_)" stroke="#000" stroke-linecap="round" stroke-miterlimit="10" stroke-width="2" fill="none"/>		<defs>			<rect id="folder-SVGID_3_" y="24.704" x="-100.6" height="34.555" width="34.575"/>		</defs>		<clipPath id="folder-SVGID_4_">			<use overflow="visible" xlink:href="#folder-SVGID_3_"/>		</clipPath>			<circle stroke-linejoin="round" r="5.8" clip-path="url(#folder-SVGID_4_)" cx="-83.202" cy="36.304" stroke="#000" stroke-linecap="round" stroke-miterlimit="10" stroke-width="2" fill="none"/>			<path stroke-linejoin="round" d="m-71.602 53.704c0-6.407-5.194-11.6-11.6-11.6-6.407 0-11.6 5.194-11.6 11.6" clip-path="url(#folder-SVGID_4_)" stroke="#000" stroke-linecap="round" stroke-miterlimit="10" stroke-width="2" fill="none"/>		<defs>			<rect id="folder-SVGID_5_" y="24.704" x="-135.04" height="34.555" width="34.575"/>		</defs>		<clipPath id="folder-SVGID_6_">			<use overflow="visible" xlink:href="#folder-SVGID_5_"/>		</clipPath>			<circle stroke-linejoin="round" r="5.8" clip-path="url(#folder-SVGID_6_)" cx="-117.64" cy="36.304" stroke="#000" stroke-linecap="round" stroke-miterlimit="10" stroke-width="2" fill="none"/>			<path stroke-linejoin="round" d="m-106.04 53.704c0-6.407-5.194-11.6-11.6-11.6-6.407 0-11.6 5.194-11.6 11.6" clip-path="url(#folder-SVGID_6_)" stroke="#000" stroke-linecap="round" stroke-miterlimit="10" stroke-width="2" fill="none"/></svg><svg xmlns:xlink="http://www.w3.org/1999/xlink" id="peer" xml:space="preserve" height="59" viewBox="0 0 64.54 58.5" width="65" version="1.1" y="177" x="0px" enable-background="new 0 0 64.54 58.5"><g display="none">	<g display="inline">		<path d="m41.205 2.776c2.115 0 3.846 1.731 3.846 3.846v45.256c0 2.115-1.731 3.846-3.846 3.846h-20.209c-2.115 0-3.846-1.731-3.846-3.846v-45.256c0-2.115 1.731-3.846 3.846-3.846h20.209m0-2.327h-20.209c-3.404 0-6.173 2.769-6.173 6.173v45.256c0 3.404 2.769 6.173 6.173 6.173h20.209c3.404 0 6.173-2.769 6.173-6.173v-45.256c0-3.404-2.769-6.173-6.173-6.173z" fill="#393F4B"/>	</g>	<circle cy="51.815" cx="32.364" r="2.328" display="inline" fill="#393F4B"/>		<line y2="47.253" stroke-width="1.862" x2="47.39" stroke="#393F4B" stroke-miterlimit="10" y1="47.253" x1="17.598" display="inline" fill="none"/>		<line y2="7.276" stroke-width="1.862" x2="47.39" stroke="#393F4B" stroke-miterlimit="10" y1="7.276" x1="17.598" display="inline" fill="none"/></g>		<path d="m52.641 3.757c2.623 0 4.844 1.882 5.28 4.476 0.237 1.413-0.09 2.834-0.921 4.001s-2.067 1.94-3.48 2.178c-0.298 0.05-0.6 0.075-0.898 0.075-2.624 0-4.844-1.882-5.28-4.476-0.237-1.413 0.09-2.834 0.921-4.001s2.067-1.94 3.48-2.178c0.298-0.05 0.6-0.075 0.898-0.075m0-2.5c-0.433 0-0.872 0.036-1.313 0.11-4.283 0.72-7.171 4.775-6.452 9.058 0.646 3.842 3.975 6.562 7.745 6.562 0.433 0 0.872-0.036 1.313-0.11 4.283-0.72 7.171-4.775 6.452-9.058-0.645-3.843-3.975-6.562-7.745-6.562z" fill="#393F4B"/>		<path d="m11.578 31.02c2.457 0 4.537 1.763 4.945 4.192 0.459 2.732-1.39 5.328-4.122 5.787-0.279 0.047-0.562 0.071-0.842 0.071-2.457 0-4.537-1.763-4.945-4.192-0.459-2.732 1.39-5.328 4.122-5.787 0.279-0.047 0.562-0.071 0.842-0.071m-0.001-2.5c-0.414 0-0.834 0.034-1.256 0.105-4.098 0.689-6.862 4.569-6.173 8.667 0.618 3.676 3.803 6.278 7.411 6.278 0.414 0 0.834-0.034 1.256-0.105 4.098-0.689 6.862-4.569 6.173-8.667-0.617-3.675-3.803-6.278-7.411-6.278z" fill="#393F4B"/>		<path d="m21.079 10.731c1.654 0 3.055 1.188 3.33 2.824 0.309 1.84-0.936 3.588-2.776 3.898-0.188 0.032-0.379 0.048-0.568 0.048-1.654 0-3.055-1.188-3.33-2.824-0.309-1.84 0.936-3.588 2.776-3.898 0.188-0.032 0.379-0.048 0.568-0.048m-0.001-2.5c-0.324 0-0.652 0.027-0.982 0.082-3.205 0.538-5.366 3.573-4.827 6.777 0.483 2.875 2.974 4.91 5.795 4.91 0.324 0 0.652-0.027 0.982-0.082 3.205-0.538 5.366-3.573 4.827-6.777-0.482-2.875-2.974-4.91-5.795-4.91z" fill="#393F4B"/>		<path d="m38.61 47.974c1.654 0 3.055 1.188 3.33 2.824 0.309 1.84-0.936 3.588-2.776 3.898-0.188 0.032-0.379 0.048-0.568 0.048-1.654 0-3.055-1.188-3.33-2.824-0.309-1.84 0.936-3.588 2.776-3.898 0.189-0.032 0.38-0.048 0.568-0.048m0-2.5c-0.324 0-0.652 0.027-0.982 0.082-3.205 0.539-5.366 3.573-4.827 6.777 0.483 2.875 2.974 4.91 5.795 4.91 0.324 0 0.652-0.027 0.982-0.082 3.205-0.539 5.366-3.573 4.827-6.777-0.483-2.875-2.974-4.91-5.795-4.91z" fill="#393F4B"/>		<path d="m35.04 23.79c3.776 0 6.972 2.709 7.599 6.441 0.705 4.197-2.136 8.185-6.333 8.891-0.428 0.072-0.862 0.108-1.291 0.108-3.776 0-6.972-2.709-7.599-6.441-0.342-2.033 0.129-4.078 1.325-5.757s2.974-2.792 5.008-3.134c0.427-0.071 0.861-0.108 1.291-0.108m0-2.5c-0.562 0-1.133 0.047-1.706 0.143-5.565 0.935-9.319 6.205-8.384 11.77 0.839 4.992 5.165 8.527 10.065 8.527 0.562 0 1.133-0.047 1.706-0.143 5.565-0.935 9.319-6.205 8.384-11.77-0.84-4.992-5.166-8.527-10.065-8.527z" fill="#393F4B"/>	<g stroke="#393F4B" stroke-width="1.7296" stroke-miterlimit="10" fill="none">		<line y2="15.358" x1="41.528" x2="48.294" y1="23.803"/>		<line y2="47.201" x1="36.74" x2="37.743" y1="41.231"/>	<line y2="35.314" x1="26.677" x2="13.6" y1="33.116"/>		<line y2="18.334" x1="29.131" x2="24.193" y1="25.104"/></g><g display="none">	<g display="inline">		<path d="m32.359 12.192c16.103 0 29.157 17.59 29.157 17.59s-13.054 17.59-29.157 17.59-29.157-17.59-29.157-17.59 13.054-17.59 29.157-17.59m0-2.5c-17.163 0-30.601 17.84-31.164 18.6l-1.106 1.49 1.106 1.49c0.564 0.759 14.001 18.6 31.164 18.6s30.601-17.84 31.164-18.6l1.106-1.49-1.106-1.49c-0.564-0.759-14.001-18.6-31.164-18.6z" fill="#3A404C"/>	</g>	<g display="inline">		<path d="m32.129 13.462c9.035 0 16.385 7.35 16.385 16.385s-7.35 16.385-16.385 16.385-16.385-7.35-16.385-16.385 7.35-16.385 16.385-16.385m0-2c-10.154 0-18.385 8.231-18.385 18.385s8.231 18.385 18.385 18.385 18.385-8.231 18.385-18.385-8.231-18.385-18.385-18.385z" fill="#3A404C"/>	</g>	<path d="m37.957 29.799c-3.122 0-5.693-2.571-5.693-5.693 0-1.836 0.918-3.489 2.204-4.499-0.643-0.092-1.377-0.184-2.02-0.184-5.693 0-10.376 4.683-10.376 10.376s4.683 10.376 10.376 10.376 10.376-4.683 10.376-10.376c0-0.826-0.092-1.561-0.275-2.296-1.011 1.378-2.756 2.296-4.592 2.296z" display="inline" fill="#3A404C"/></g><g id="peer-Layer_2"/></svg><svg xmlns:xlink="http://www.w3.org/1999/xlink" version="1.1" id="peoples" x="0px" y="236" width="65" height="59" viewBox="0 0 64.54 58.5" enable-background="new 0 0 64.54 58.5" xml:space="preserve"><g display="none">	<g display="inline">		<path fill="#393F4B" d="M41.205,2.776c2.115,0,3.846,1.731,3.846,3.846v45.256c0,2.115-1.731,3.846-3.846,3.846H20.996    c-2.115,0-3.846-1.731-3.846-3.846V6.622c0-2.115,1.731-3.846,3.846-3.846L41.205,2.776 M41.205,0.449H20.996    c-3.404,0-6.173,2.769-6.173,6.173v45.256c0,3.404,2.769,6.173,6.173,6.173h20.209c3.404,0,6.173-2.769,6.173-6.173V6.622    C47.378,3.218,44.609,0.449,41.205,0.449L41.205,0.449z"/>	</g>	<circle display="inline" fill="#393F4B" cx="32.364" cy="51.815" r="2.328"/>			<line display="inline" fill="none" stroke="#393F4B" stroke-width="1.862" stroke-miterlimit="10" x1="17.598" y1="47.253" x2="47.39" y2="47.253"/>			<line display="inline" fill="none" stroke="#393F4B" stroke-width="1.862" stroke-miterlimit="10" x1="17.598" y1="7.276" x2="47.39" y2="7.276"/></g><g display="none">	<g display="inline">		<path fill="#393F4B" d="M52.641,3.757L52.641,3.757c2.623,0,4.844,1.882,5.28,4.476c0.237,1.413-0.09,2.834-0.921,4.001    s-2.067,1.94-3.48,2.178c-0.298,0.05-0.6,0.075-0.898,0.075c-2.624,0-4.844-1.882-5.28-4.476c-0.237-1.413,0.09-2.834,0.921-4.001    s2.067-1.94,3.48-2.178C52.041,3.782,52.343,3.757,52.641,3.757 M52.641,1.257c-0.433,0-0.872,0.036-1.313,0.11    c-4.283,0.72-7.171,4.775-6.452,9.058c0.646,3.842,3.975,6.562,7.745,6.562c0.433,0,0.872-0.036,1.313-0.11    c4.283-0.72,7.171-4.775,6.452-9.058C59.741,3.976,56.411,1.257,52.641,1.257L52.641,1.257z"/>	</g>	<g display="inline">		<path fill="#393F4B" d="M11.578,31.02L11.578,31.02c2.457,0,4.537,1.763,4.945,4.192c0.459,2.732-1.39,5.328-4.122,5.787    c-0.279,0.047-0.562,0.071-0.842,0.071c-2.457,0-4.537-1.763-4.945-4.192c-0.459-2.732,1.39-5.328,4.122-5.787    C11.015,31.044,11.298,31.02,11.578,31.02 M11.577,28.52c-0.414,0-0.834,0.034-1.256,0.105c-4.098,0.689-6.862,4.569-6.173,8.667    c0.618,3.676,3.803,6.278,7.411,6.278c0.414,0,0.834-0.034,1.256-0.105c4.098-0.689,6.862-4.569,6.173-8.667    C18.371,31.123,15.185,28.52,11.577,28.52L11.577,28.52z"/>	</g>	<g display="inline">		<path fill="#393F4B" d="M21.079,10.731c1.654,0,3.055,1.188,3.33,2.824c0.309,1.84-0.936,3.588-2.776,3.898    c-0.188,0.032-0.379,0.048-0.568,0.048c-1.654,0-3.055-1.188-3.33-2.824c-0.309-1.84,0.936-3.588,2.776-3.898    C20.699,10.747,20.89,10.731,21.079,10.731 M21.078,8.231c-0.324,0-0.652,0.027-0.982,0.082c-3.205,0.538-5.366,3.573-4.827,6.777    c0.483,2.875,2.974,4.91,5.795,4.91c0.324,0,0.652-0.027,0.982-0.082c3.205-0.538,5.366-3.573,4.827-6.777    C26.391,10.266,23.899,8.231,21.078,8.231L21.078,8.231z"/>	</g>	<g display="inline">		<path fill="#393F4B" d="M38.61,47.974L38.61,47.974c1.654,0,3.055,1.188,3.33,2.824c0.309,1.84-0.936,3.588-2.776,3.898    c-0.188,0.032-0.379,0.048-0.568,0.048c-1.654,0-3.055-1.188-3.33-2.824c-0.309-1.84,0.936-3.588,2.776-3.898    C38.231,47.99,38.422,47.974,38.61,47.974 M38.61,45.474c-0.324,0-0.652,0.027-0.982,0.082c-3.205,0.539-5.366,3.573-4.827,6.777    c0.483,2.875,2.974,4.91,5.795,4.91c0.324,0,0.652-0.027,0.982-0.082c3.205-0.539,5.366-3.573,4.827-6.777    C43.922,47.509,41.431,45.474,38.61,45.474L38.61,45.474z"/>	</g>	<g display="inline">		<path fill="#393F4B" d="M35.04,23.79L35.04,23.79c3.776,0,6.972,2.709,7.599,6.441c0.705,4.197-2.136,8.185-6.333,8.891    c-0.428,0.072-0.862,0.108-1.291,0.108c-3.776,0-6.972-2.709-7.599-6.441c-0.342-2.033,0.129-4.078,1.325-5.757    c1.196-1.679,2.974-2.792,5.008-3.134C34.176,23.827,34.61,23.79,35.04,23.79 M35.04,21.29c-0.562,0-1.133,0.047-1.706,0.143    c-5.565,0.935-9.319,6.205-8.384,11.77c0.839,4.992,5.165,8.527,10.065,8.527c0.562,0,1.133-0.047,1.706-0.143    c5.565-0.935,9.319-6.205,8.384-11.77C44.265,24.825,39.939,21.29,35.04,21.29L35.04,21.29z"/>	</g>			<line display="inline" fill="none" stroke="#393F4B" stroke-width="1.7296" stroke-miterlimit="10" x1="41.528" y1="23.803" x2="48.294" y2="15.358"/>			<line display="inline" fill="none" stroke="#393F4B" stroke-width="1.7296" stroke-miterlimit="10" x1="36.74" y1="41.231" x2="37.743" y2="47.201"/>			<line display="inline" fill="none" stroke="#393F4B" stroke-width="1.7296" stroke-miterlimit="10" x1="26.677" y1="33.116" x2="13.6" y2="35.314"/>			<line display="inline" fill="none" stroke="#393F4B" stroke-width="1.7296" stroke-miterlimit="10" x1="29.131" y1="25.104" x2="24.193" y2="18.334"/></g><g id="peoples-Layer_2">	<g id="peoples-Layer_3">	</g></g><g>	<polyline fill="none" stroke="#000000" stroke-linecap="round" stroke-linejoin="round" stroke-miterlimit="10" points="   -36.836,-37.917 -36.836,5.958 -55.412,5.958 -60.72,1.083 -95.219,1.083 -95.219,-42.792 -76.643,-42.792 -71.335,-37.917    -36.836,-37.917  "/>			<ellipse fill="none" stroke="#000000" stroke-linecap="round" stroke-linejoin="round" stroke-miterlimit="10" cx="-73.989" cy="-23.292" rx="5.308" ry="4.875"/>	<path fill="none" stroke="#000000" stroke-linecap="round" stroke-linejoin="round" stroke-miterlimit="10" d="M-63.374-8.667   c0-5.385-4.753-9.75-10.615-9.75c-5.863,0-10.615,4.365-10.615,9.75"/>			<line fill="none" stroke="#000000" stroke-linecap="round" stroke-linejoin="round" stroke-miterlimit="10" x1="-52.759" y1="-23.292" x2="-47.451" y2="-23.292"/>			<line fill="none" stroke="#000000" stroke-linecap="round" stroke-linejoin="round" stroke-miterlimit="10" x1="-52.759" y1="-13.542" x2="-47.451" y2="-13.542"/></g><polyline fill="none" points="64.54,0 0,0 0,58.5 "/><polyline fill="none" points="0,58.5 64.54,58.5 64.54,0 "/><g>	<path fill="none" stroke="#000000" stroke-linecap="round" stroke-linejoin="round" stroke-miterlimit="10" d="M132.658,29.25   v25.795h-22.776V51.36 M109.882,29.25V3.455h22.776V7.14"/>	<polyline fill="none" stroke="#000000" stroke-linecap="round" stroke-linejoin="round" stroke-miterlimit="10" points="   141.199,3.455 149.74,18.195 141.199,32.935  "/>			<line fill="none" stroke="#000000" stroke-linecap="round" stroke-linejoin="round" stroke-miterlimit="10" x1="149.74" y1="18.195" x2="121.27" y2="18.195"/>	<polyline fill="none" stroke="#000000" stroke-linecap="round" stroke-linejoin="round" stroke-miterlimit="10" points="   101.341,25.565 92.8,40.305 101.341,55.045  "/>			<line fill="none" stroke="#000000" stroke-linecap="round" stroke-linejoin="round" stroke-miterlimit="10" x1="92.8" y1="40.305" x2="121.27" y2="40.305"/></g><g>	<g>		<defs>			<rect id="peoples-SVGID_1_" x="10.754" y="7.426" width="43.673" height="43.648"/>		</defs>		<clipPath id="peoples-SVGID_2_">			<use xlink:href="#peoples-SVGID_1_" overflow="visible"/>		</clipPath>					<circle clip-path="url(#peoples-SVGID_2_)" fill="none" stroke="#000000" stroke-linecap="round" stroke-linejoin="round" stroke-miterlimit="10" cx="32.577" cy="21.975" r="7.275"/>					<path clip-path="url(#peoples-SVGID_2_)" fill="none" stroke="#000000" stroke-linecap="round" stroke-linejoin="round" stroke-miterlimit="10" d="    M47.127,43.799c0-8.035-6.514-14.549-14.549-14.549c-8.035,0-14.549,6.514-14.549,14.549"/>	</g>	<g>		<defs>			<rect id="peoples-SVGID_3_" x="32.201" y="7.426" width="34.575" height="34.555"/>		</defs>		<clipPath id="peoples-SVGID_4_">			<use xlink:href="#peoples-SVGID_3_" overflow="visible"/>		</clipPath>					<circle clip-path="url(#peoples-SVGID_4_)" fill="none" stroke="#000000" stroke-linecap="round" stroke-linejoin="round" stroke-miterlimit="10" cx="49.601" cy="19.026" r="5.8"/>					<path clip-path="url(#peoples-SVGID_4_)" fill="none" stroke="#000000" stroke-linecap="round" stroke-linejoin="round" stroke-miterlimit="10" d="    M61.201,36.426c0-6.407-5.194-11.6-11.6-11.6c-6.407,0-11.6,5.194-11.6,11.6"/>	</g>	<g>		<defs>			<rect id="peoples-SVGID_5_" x="-2.236" y="7.426" width="34.575" height="34.555"/>		</defs>		<clipPath id="peoples-SVGID_6_">			<use xlink:href="#peoples-SVGID_5_" overflow="visible"/>		</clipPath>					<circle clip-path="url(#peoples-SVGID_6_)" fill="none" stroke="#000000" stroke-linecap="round" stroke-linejoin="round" stroke-miterlimit="10" cx="15.165" cy="19.026" r="5.8"/>					<path clip-path="url(#peoples-SVGID_6_)" fill="none" stroke="#000000" stroke-linecap="round" stroke-linejoin="round" stroke-miterlimit="10" d="    M26.765,36.426c0-6.407-5.194-11.6-11.6-11.6c-6.407,0-11.6,5.194-11.6,11.6"/>	</g></g></svg><svg xmlns:xlink="http://www.w3.org/1999/xlink" id="phone" xml:space="preserve" height="59" viewBox="0 0 64.54 58.5" width="65" version="1.1" y="295" x="0px" enable-background="new 0 0 64.54 58.5">		<path d="m41.205 2.776c2.115 0 3.846 1.731 3.846 3.846v45.256c0 2.115-1.731 3.846-3.846 3.846h-20.209c-2.115 0-3.846-1.731-3.846-3.846v-45.256c0-2.115 1.731-3.846 3.846-3.846h20.209m0-2.327h-20.209c-3.404 0-6.173 2.769-6.173 6.173v45.256c0 3.404 2.769 6.173 6.173 6.173h20.209c3.404 0 6.173-2.769 6.173-6.173v-45.256c0-3.404-2.769-6.173-6.173-6.173z" fill="#393F4B"/>	<circle cy="51.815" cx="32.364" r="2.328" fill="#393F4B"/>	<line y2="47.253" x1="17.598" x2="47.39" stroke="#393F4B" stroke-miterlimit="10" y1="47.253" stroke-width="1.862" fill="none"/>	<line y2="7.276" x1="17.598" x2="47.39" stroke="#393F4B" stroke-miterlimit="10" y1="7.276" stroke-width="1.862" fill="none"/><g display="none">	<g display="inline">		<path d="m51.666 3.757c2.623 0 4.844 1.882 5.28 4.476 0.237 1.413-0.09 2.834-0.921 4.001s-2.067 1.94-3.48 2.178c-0.298 0.05-0.6 0.075-0.898 0.075-2.624 0-4.844-1.882-5.28-4.476-0.49-2.917 1.484-5.688 4.401-6.178 0.297-0.051 0.599-0.076 0.898-0.076m0-2.5c-0.433 0-0.872 0.036-1.313 0.11-4.283 0.72-7.171 4.775-6.452 9.058 0.646 3.842 3.975 6.562 7.745 6.562 0.433 0 0.872-0.036 1.313-0.11 4.283-0.72 7.171-4.775 6.452-9.058-0.646-3.843-3.975-6.562-7.745-6.562z" fill="#393F4B"/>	</g>	<g display="inline">		<path d="m10.602 31.02c2.457 0 4.537 1.763 4.945 4.192 0.459 2.732-1.39 5.328-4.122 5.787-0.279 0.047-0.562 0.071-0.842 0.071-2.457 0-4.537-1.763-4.945-4.192-0.459-2.732 1.39-5.328 4.122-5.787 0.279-0.047 0.563-0.071 0.842-0.071m0-2.5c-0.414 0-0.834 0.034-1.256 0.105-4.098 0.689-6.862 4.569-6.173 8.667 0.618 3.676 3.803 6.278 7.411 6.278 0.414 0 0.834-0.034 1.256-0.105 4.098-0.689 6.862-4.569 6.173-8.667-0.618-3.675-3.804-6.278-7.411-6.278z" fill="#393F4B"/>	</g>	<g display="inline">		<path d="m20.103 10.731c1.654 0 3.055 1.188 3.33 2.824 0.15 0.891-0.057 1.788-0.581 2.524s-1.304 1.224-2.195 1.374c-0.188 0.032-0.379 0.048-0.568 0.048-1.654 0-3.055-1.188-3.33-2.824-0.309-1.84 0.936-3.588 2.776-3.898 0.189-0.032 0.38-0.048 0.568-0.048m0-2.5c-0.324 0-0.652 0.027-0.982 0.082-3.205 0.538-5.366 3.573-4.827 6.777 0.483 2.875 2.974 4.91 5.795 4.91 0.324 0 0.652-0.027 0.982-0.082 3.205-0.538 5.366-3.573 4.827-6.777-0.483-2.875-2.974-4.91-5.795-4.91z" fill="#393F4B"/>	</g>	<g display="inline">		<path d="m37.635 47.974c1.654 0 3.055 1.188 3.33 2.824 0.15 0.891-0.057 1.788-0.581 2.524s-1.304 1.224-2.195 1.374c-0.188 0.032-0.379 0.048-0.568 0.048-1.654 0-3.055-1.188-3.33-2.824-0.309-1.84 0.936-3.588 2.776-3.898 0.188-0.032 0.379-0.048 0.568-0.048m0-2.5c-0.324 0-0.652 0.027-0.982 0.082-3.205 0.539-5.366 3.573-4.827 6.777 0.483 2.875 2.974 4.91 5.795 4.91 0.324 0 0.652-0.027 0.982-0.082 3.205-0.538 5.366-3.573 4.827-6.777-0.483-2.875-2.974-4.91-5.795-4.91z" fill="#393F4B"/>	</g>	<g display="inline">		<path d="m34.064 23.79c3.776 0 6.972 2.709 7.599 6.441 0.342 2.033-0.129 4.078-1.325 5.757s-2.974 2.792-5.008 3.134c-0.428 0.072-0.862 0.108-1.291 0.108-3.776 0-6.972-2.709-7.599-6.441-0.342-2.033 0.129-4.078 1.325-5.757s2.974-2.792 5.008-3.134c0.427-0.071 0.862-0.108 1.291-0.108m0-2.5c-0.562 0-1.133 0.047-1.706 0.143-5.565 0.935-9.319 6.205-8.384 11.77 0.839 4.992 5.165 8.527 10.065 8.527 0.562 0 1.133-0.047 1.706-0.143 5.565-0.935 9.319-6.205 8.384-11.77-0.839-4.992-5.166-8.527-10.065-8.527z" fill="#393F4B"/>	</g><g stroke="#393F4B" stroke-width="1.7296" stroke-miterlimit="10" fill="none">		<line y2="15.358" x2="47.318" y1="23.803" x1="40.553" display="inline"/>		<line y2="47.201" x2="36.767" y1="41.231" x1="35.764" display="inline"/>		<line y2="35.314" x2="12.624" y1="33.116" x1="25.701" display="inline"/>		<line y2="18.334" x2="23.217" y1="25.104" x1="28.155" display="inline"/></g></g><g display="none">	<g display="inline">		<path d="m32.359 12.192c16.103 0 29.157 17.59 29.157 17.59s-13.054 17.59-29.157 17.59-29.157-17.59-29.157-17.59 13.054-17.59 29.157-17.59m0-2.5c-17.163 0-30.601 17.84-31.164 18.6l-1.106 1.49 1.106 1.49c0.564 0.759 14.001 18.6 31.164 18.6s30.601-17.84 31.164-18.6l1.106-1.49-1.106-1.49c-0.564-0.759-14.001-18.6-31.164-18.6z" fill="#3A404C"/>	</g>	<g display="inline">		<path d="m32.129 13.462c9.035 0 16.385 7.35 16.385 16.385s-7.35 16.385-16.385 16.385-16.385-7.35-16.385-16.385 7.35-16.385 16.385-16.385m0-2c-10.154 0-18.385 8.231-18.385 18.385s8.231 18.385 18.385 18.385 18.385-8.231 18.385-18.385-8.231-18.385-18.385-18.385z" fill="#3A404C"/>	</g>	<path d="m37.957 29.799c-3.122 0-5.693-2.571-5.693-5.693 0-1.836 0.918-3.489 2.204-4.499-0.643-0.092-1.377-0.184-2.02-0.184-5.693 0-10.376 4.683-10.376 10.376s4.683 10.376 10.376 10.376 10.376-4.683 10.376-10.376c0-0.826-0.092-1.561-0.275-2.296-1.011 1.378-2.756 2.296-4.592 2.296z" display="inline" fill="#3A404C"/></g><g id="phone-Layer_2"/></svg></svg>
