<?xml version="1.0" encoding="utf-8"?>
<!-- Generator: Adobe Illustrator 17.0.0, SVG Export Plug-In . SVG Version: 6.00 Build 0)  -->
<!DOCTYPE svg PUBLIC "-//W3C//DTD SVG 1.1//EN" "http://www.w3.org/Graphics/SVG/1.1/DTD/svg11.dtd">
<svg version="1.1" id="Layer_1" xmlns="http://www.w3.org/2000/svg" xmlns:xlink="http://www.w3.org/1999/xlink" x="0px" y="0px"
	 width="597.347px" height="196.535px" viewBox="0 0 597.347 196.535" enable-background="new 0 0 597.347 196.535"
	 xml:space="preserve">
<path fill="#00A9D9" d="M379.599,71.179h6.175v38.039c0,12.968,7.534,19.761,19.514,19.761s19.514-6.792,19.514-19.761V71.179h6.175
	v38.657c0,16.303-10.375,24.948-25.689,24.948s-25.689-8.645-25.689-24.948V71.179z"/>
<path fill="#393F4B" d="M330.361,54.219c3.493-2.619,8.243-5.688,14.821-5.688v22.648h21.485v13.462h-21.485v27.789
	c0,6.792,4.27,9.119,9.581,9.119c1.605,0,5.968,0.177,12.086-1.639l2.632,12.524c-5.917,2.21-14.348,2.577-17.189,2.577
	c-8.522,0-21.931-2.326-21.931-20.975V54.219z"/>
<g>
	<circle fill="#00A9D9" cx="535.158" cy="41.114" r="10.669"/>
	<circle fill="#00A9D9" cx="535.238" cy="67.647" r="7.778"/>
	<circle fill="#00A9D9" cx="508.625" cy="41.033" r="7.778"/>
</g>
<g>
	<g>
		<path fill="#00A9D9" d="M474.437,69.821c-17.961,0-32.526,14.525-32.597,32.469h-0.003v57.325h6.175v-38.112
			c5.922,8.187,15.548,13.519,26.425,13.519c18.005,0,32.6-14.596,32.6-32.6S492.442,69.821,474.437,69.821z M474.437,128.847
			c-14.594,0-26.426-11.831-26.426-26.426s11.831-26.426,26.426-26.426s26.426,11.831,26.426,26.426
			S489.031,128.847,474.437,128.847z"/>
	</g>
</g>
<path fill="#393F4B" d="M318.928,85.839c-4.022-1.233-10.731-3.301-21.289-1.223v48.81h-14.696V74.13
	c2.777-1.032,6.251-2.004,10.418-2.917c4.168-0.912,15.472-2.946,27.565,0.773L318.928,85.839z"/>
<path fill="#393F4B" d="M238.731,69.821c-17.824,0-32.482,14.543-32.482,32.482s14.542,32.482,32.482,32.482
	c6.514,0,12.574-1.925,17.659-5.226c0,1.386,0,2.726,0,3.867c4.886,0,10.056,0,14.823,0c0-20.421,0-33.653,0-54.045
	C259.53,79.381,256.554,69.821,238.731,69.821z M238.731,121.001c-10.327,0-18.699-8.372-18.699-18.699
	c0-10.327,8.372-18.699,18.699-18.699c10.327,0,18.699,8.372,18.699,18.699C257.43,112.629,249.058,121.001,238.731,121.001z"/>
<path fill="#393F4B" d="M173.281,69.832c-7.364,0-14.213,2.328-19.1,7.075c-4.851-4.749-11.688-7.075-19.045-7.075
	c-4.878,0-9.533,1.019-13.541,3.088c-0.001,0.001-0.887,0.481-1.297,0.726c-4.844,2.784-6.725,4.205-11.632,4.584
	c0,1.785,0,55.195,0,55.195l14.585,0.001V97.605c0-9.643,4.824-13.742,11.772-13.742c6.948,0,11.772,4.099,11.772,13.621v35.941
	l7.301-0.001l7.301,0.001V97.605c0-9.643,4.823-13.742,11.772-13.742s11.772,4.099,11.772,13.621v35.941l14.585-0.001V96.032
	C199.525,78.319,187.349,69.832,173.281,69.832z"/>
<path fill="#393F4B" d="M54.248,115.294c5.598,3.66,11.573,6.769,21.817,6.769c6.83,0,10.751-2.223,10.751-5.928
	c0-5.188-9.36-7.164-18.846-11.239c-8.854-3.705-13.913-8.769-13.913-17.538c0-11.486,10.372-18.032,23.273-18.032
	c8.095,0,15.724,2.44,20.693,6.677l-1.721,12.22c-4.933-3.458-11.13-5.928-18.34-5.928c-5.818,0-9.613,1.729-9.613,5.311
	c0,3.829,4.806,4.94,11.131,7.287c11.384,4.199,22.008,8.398,22.008,20.996c0,9.263-6.957,19.143-25.676,19.143
	c-9.486,0-17.075-2.47-23.399-6.669L54.248,115.294z"/>
</svg>
